# Blender v2.78 (sub 0) OBJ File: 'Evonove.blend'
# www.blender.org
mtllib EvonoveGlassOpaco.mtl
o Cube.098_Cube.434
v -8.785230 1.905538 -0.973874
v -8.277315 1.905538 -1.481789
v -8.792300 1.905538 -0.980945
v -8.284386 1.905538 -1.488860
v -8.785230 0.081418 -0.973874
v -8.277315 0.081418 -1.481789
v -8.792300 0.081418 -0.980945
v -8.284386 0.081418 -1.488860
vt 0.0000 0.0000
vt 0.0000 0.0000
vt 0.0000 0.0000
vt 0.0000 0.0000
vt 0.0000 0.0000
vt 0.0000 0.0000
vt 0.0000 0.0000
vt 0.0000 0.0000
vn 0.0000 1.0000 0.0000
vn -0.7071 0.0000 -0.7071
vn -0.0000 -1.0000 0.0000
vn 0.7071 0.0000 0.7071
vn -0.7071 0.0000 0.7071
vn 0.7071 0.0000 -0.7071
usemtl GLASS.003
s off
f 1/1/1 2/2/1 4/3/1 3/4/1
f 3/4/2 4/3/2 8/5/2 7/6/2
f 7/6/3 8/5/3 6/7/3 5/8/3
f 5/8/4 6/7/4 2/2/4 1/1/4
f 3/4/5 7/6/5 5/8/5 1/1/5
f 8/5/6 4/3/6 2/2/6 6/7/6
o Cube.097_Cube.433
v -8.025055 1.907638 -1.768414
v -7.391304 1.907638 -1.768414
v -8.025055 1.907638 -1.778414
v -7.391304 1.907638 -1.778414
v -8.025055 0.083517 -1.768414
v -7.391304 0.083517 -1.768414
v -8.025055 0.083517 -1.778414
v -7.391304 0.083517 -1.778414
vt 0.0000 0.0000
vt 0.0000 0.0000
vt 0.0000 0.0000
vt 0.0000 0.0000
vt 0.0000 0.0000
vt 0.0000 0.0000
vt 0.0000 0.0000
vt 0.0000 0.0000
vn 0.0000 1.0000 0.0000
vn -0.0000 0.0000 -1.0000
vn -0.0000 -1.0000 0.0000
vn 0.0000 0.0000 1.0000
vn -1.0000 0.0000 0.0000
vn 1.0000 0.0000 0.0000
usemtl GLASS.004
s off
f 9/9/7 10/10/7 12/11/7 11/12/7
f 11/12/8 12/11/8 16/13/8 15/14/8
f 15/14/9 16/13/9 14/15/9 13/16/9
f 13/16/10 14/15/10 10/10/10 9/9/10
f 11/12/11 15/14/11 13/16/11 9/9/11
f 16/13/12 12/11/12 10/10/12 14/15/12
o Cube_008.003_Cube.405
v 10.056656 0.402753 -4.480259
v 10.056656 0.411101 -4.480259
v 8.906656 0.402753 -4.480259
v 8.906656 0.411101 -4.480259
v 10.056656 0.402753 -5.080259
v 10.056656 0.411101 -5.080259
v 8.906656 0.402753 -5.080259
v 8.906656 0.411101 -5.080259
vn 0.0000 0.0000 1.0000
vn -1.0000 0.0000 0.0000
vn 0.0000 0.0000 -1.0000
vn 1.0000 0.0000 0.0000
vn 0.0000 -1.0000 0.0000
vn 0.0000 1.0000 0.0000
usemtl GLASS
s off
f 18//13 19//13 17//13
f 20//14 23//14 19//14
f 24//15 21//15 23//15
f 22//16 17//16 21//16
f 23//17 17//17 19//17
f 20//18 22//18 24//18
f 18//13 20//13 19//13
f 20//14 24//14 23//14
f 24//15 22//15 21//15
f 22//16 18//16 17//16
f 23//17 21//17 17//17
f 20//18 18//18 22//18
o Cube.014_Cube.022
v -7.134181 -0.004292 4.872247
v -7.134181 2.495708 4.872247
v -7.144181 -0.004292 4.872247
v -7.144181 2.495708 4.872247
v -7.134181 -0.004292 1.221796
v -7.134181 2.495708 1.221796
v -7.144181 -0.004292 1.221796
v -7.144181 2.495708 1.221796
vn 0.0000 0.0000 1.0000
vn -1.0000 0.0000 0.0000
vn 0.0000 0.0000 -1.0000
vn 1.0000 0.0000 0.0000
vn 0.0000 -1.0000 0.0000
vn 0.0000 1.0000 0.0000
usemtl OPAQUEGLASS
s off
f 25//19 26//19 28//19 27//19
f 27//20 28//20 32//20 31//20
f 31//21 32//21 30//21 29//21
f 29//22 30//22 26//22 25//22
f 27//23 31//23 29//23 25//23
f 32//24 28//24 26//24 30//24
o Cube.102_Cube.455
v -7.203712 0.929121 5.834073
v -7.183712 0.929121 5.834073
v -7.183712 0.929121 7.461595
v -7.203712 0.929121 7.461595
v -7.203712 1.919960 5.834073
v -7.183712 1.919960 5.834074
v -7.183712 1.919960 7.461595
v -7.203712 1.919960 7.461595
vn 0.0000 -1.0000 0.0000
vn 0.0000 1.0000 -0.0000
vn 0.0000 0.0000 -1.0000
vn 1.0000 0.0000 -0.0000
vn 0.0000 0.0000 1.0000
vn -1.0000 0.0000 0.0000
usemtl GLASS
s off
f 33//25 35//25 36//25
f 40//26 38//26 37//26
f 37//27 34//27 33//27
f 38//28 35//28 34//28
f 35//29 40//29 36//29
f 33//30 40//30 37//30
f 33//25 34//25 35//25
f 40//26 39//26 38//26
f 37//27 38//27 34//27
f 38//28 39//28 35//28
f 35//29 39//29 40//29
f 33//30 36//30 40//30
